<?xml version="1.0" encoding="utf-8"?>
<!-- Generator: Adobe Illustrator 23.0.3, SVG Export Plug-In . SVG Version: 6.00 Build 0)  -->
<svg version="1.1" id="Layer_1" xmlns="http://www.w3.org/2000/svg" xmlns:xlink="http://www.w3.org/1999/xlink" x="0px" y="0px"
	 viewBox="0 0 200 200" style="enable-background:new 0 0 200 200;" xml:space="preserve">
<style type="text/css">
	.st0{fill:none;}
	.st1{fill:none;stroke:#FFFFFF;stroke-width:3;}
	.st2{fill:#FFFFFF;}
	.st3{font-family:'ArialMT';}
	.st4{font-size:26px;}
</style>
<g id="Rectangle_41">
	<path class="st0" d="M35.3,69h128c17.1,0,31,13.9,31,31l0,0c0,17.1-13.9,31-31,31h-128c-17.1,0-31-13.9-31-31l0,0
		C4.3,82.9,18.2,69,35.3,69z"/>
	<path class="st1" d="M35.3,70.5h128c16.3,0,29.5,13.2,29.5,29.5l0,0c0,16.3-13.2,29.5-29.5,29.5h-128C19,129.5,5.8,116.3,5.8,100
		l0,0C5.8,83.7,19,70.5,35.3,70.5z"/>
</g>
<text transform="matrix(1 0 0 1 48.34 108.04)" class="st2 st3 st4">Se video</text>
</svg>
