<?xml version="1.0" encoding="utf-8"?>
<!-- Generator: Adobe Illustrator 23.0.3, SVG Export Plug-In . SVG Version: 6.00 Build 0)  -->
<svg version="1.1" id="Layer_1" xmlns="http://www.w3.org/2000/svg" xmlns:xlink="http://www.w3.org/1999/xlink" x="0px" y="0px"
	 viewBox="0 0 1280 720" style="enable-background:new 0 0 1280 720;" xml:space="preserve">
<style type="text/css">
	.st0{fill:#FFFFFF;}
	.st1{fill:none;}
	.st2{font-family:'ArialMT';}
	.st3{font-size:150px;}
</style>
<g>
	<path class="st0" d="M1035.5,151c26.3,0,51.7,5.1,75.7,15.3c23.2,9.8,44,23.8,61.8,41.7c17.9,17.9,31.9,38.7,41.7,61.8
		c10.1,24,15.3,49.4,15.3,75.7s-5.1,51.7-15.3,75.7c-9.8,23.2-23.8,44-41.7,61.8c-17.9,17.9-38.7,31.9-61.8,41.7
		c-24,10.1-49.4,15.3-75.7,15.3h-787c-26.3,0-51.7-5.1-75.7-15.3c-23.2-9.8-44-23.8-61.8-41.7c-17.9-17.9-31.9-38.7-41.7-61.8
		c-10.1-24-15.3-49.4-15.3-75.7s5.1-51.7,15.3-75.7c9.8-23.2,23.8-44,41.7-61.8c17.9-17.9,38.7-31.9,61.8-41.7
		c24-10.1,49.4-15.3,75.7-15.3H1035.5 M1035.5,141h-787C135.6,141,44,232.6,44,345.5v0C44,458.4,135.6,550,248.5,550h787
		c112.9,0,204.5-91.6,204.5-204.5v0C1240,232.6,1148.4,141,1035.5,141L1035.5,141z"/>
</g>
<rect x="203" y="279" class="st1" width="877" height="264"/>
<text transform="matrix(1 0 0 1 349.6299 386.3984)" class="st0 st2 st3">Se video</text>
</svg>
